<svg xmlns="http://www.w3.org/2000/svg" class="svg-icon-lib">
    <symbol id="best_price" viewBox="0 0 50 50">
      <title>best_price</title>
      <path d="M50 9.6c0 7.6-3.3 13.1-3.5 13.3-.3.5-.8.7-1.3.7-.3 0-.5-.1-.8-.2-.7-.4-.9-1.3-.5-2 0 0 3-5.1 3-11.8C47 5.8 44.5 3 41.1 3c-3.3 0-5.9 2.7-5.9 5.9 0 1.4.7 4.9.9 6.2.2.8-.4 1.6-1.2 1.8-.8.2-1.6-.3-1.8-1.2-.1-.5-1-4.8-1-6.8C32.1 4 36.1 0 41 0c5.2 0 9 4.1 9 9.6zm-8.7 2.3c.6 4.9 1.4 14.5.5 15.5L20.2 49c-1.3 1.3-3.5 1.3-4.8 0L1 34.6c-1.3-1.3-1.3-3.5 0-4.8L22.6 8.2c.3-.4 4.1-.4 8.3-.1 0 .3-.1.5-.1.8 0 1.1.2 2.7.5 4.2-.4.7-.7 1.4-.7 2.3 0 2.2 1.8 4.1 4.1 4.1s4.1-1.8 4.1-4.1c0-1.4-.7-2.6-1.8-3.3-.2-1.3-.4-2.5-.4-3.1v-.4c.5.1 1 .1 1.5.2 2.9.2 2.9.2 3.2 3.1zM29.8 28.1c-.3-.9-.9-2.1-2.1-3.3l1.6-1.6-1.8-1.8-1.7 1.6c-2.4-1.6-4.8-1.5-6.5.2-1.8 1.8-1.4 4.1-.1 6.8.9 1.8 1.1 2.9.4 3.6-.7.7-1.9.4-3-.7-1.2-1.2-1.9-2.7-2.3-3.9l-2.7 1.6c.3 1.1 1.2 2.7 2.4 3.9l-1.8 1.8 1.8 1.8 1.9-1.9c2.5 1.8 5.1 1.5 6.7-.1 1.7-1.7 1.8-3.6.4-6.6-1-2.2-1.2-3.2-.7-3.8.5-.5 1.5-.7 2.7.5 1.3 1.3 1.8 2.6 2 3.3l2.8-1.4zm0 0"/>
    </symbol>
    <symbol id="box" viewBox="0 0 50 50">
      <title>box</title>
      <path d="M49.9 19.2l-4.6-8.8c-.2-.3-.4-.5-.7-.6L25.4 4.5h-.7L5.5 9.8c-.3.1-.6.3-.8.6L.1 19.2c-.1.3-.1.7 0 1 .1.3.3.6.6.7l4 1.9v12.1c0 .5.3.9.7 1.1l19.2 9.4c.1.1.3.1.4.1.2 0 .3 0 .5-.1L44.7 36c.4-.2.7-.6.7-1.1V22.8l3.9-1.9c.3-.1.5-.4.6-.7.1-.3.1-.7 0-1zM25 6.9l15.3 4.2L25 16.9 9.6 11.1 25 6.9zM6.3 12.4l17.1 6.5-3.8 8.5-16.8-8.1 3.5-6.9zM7 34.1V23.9L19.7 30c.2.1.3.1.5.1.1 0 .3 0 .4-.1.3-.1.5-.3.7-.6l2.6-5.8v18.7L7 34.1zm36.1 0l-16.9 8.3V23.9l2.5 5.6c.1.3.4.5.7.6.1 0 .3.1.4.1.2 0 .3 0 .5-.1l12.8-6.2v10.2zm-12.8-6.7l-3.8-8.5 17.1-6.5 3.5 6.8-16.8 8.2z"/>
    </symbol>
    <symbol id="currency" viewBox="0 0 50 50">
      <title>currency</title>
      <path d="M25 0C11.2 0 0 11.2 0 25s11.2 25 25 25 25-11.2 25-25S38.8 0 25 0zm0 47.7C12.5 47.7 2.3 37.5 2.3 25S12.5 2.3 25 2.3 47.7 12.5 47.7 25 37.5 47.7 25 47.7z"/><path d="M25 4.4C13.7 4.4 4.4 13.7 4.4 25S13.7 45.6 25 45.6 45.6 36.3 45.6 25 36.3 4.4 25 4.4zm0 40.5C14 44.9 5.1 36 5.1 25S14 5.1 25 5.1 44.9 14 44.9 25 36 44.9 25 44.9z"/><path d="M22.6 25.5h3.9l1-1h-3.9l-1 1zM25 35h-.2c-1.3-.1-2.4-.9-2.9-2.1-.4-1-.4-2.5.8-3.7l1.1-1.1H20c-1.1 1.7-1.4 3.7-.7 5.7.9 2.2 2.9 3.7 5.3 3.8h.4c3.9 0 7-3.2 7-7h-2.7c0 2.5-1.9 4.4-4.3 4.4zM25 15h.2c1.3.1 2.4.9 2.9 2.1.4 1 .4 2.5-.8 3.7l-1.1 1.1H30c1.1-1.7 1.4-3.7.7-5.7-.9-2.2-2.9-3.7-5.3-3.8H25c-3.9 0-7 3.2-7 7h2.7c0-2.5 1.9-4.4 4.3-4.4zM18.5 25.9h13v1.8h-13zM18.5 22.3h13v1.8h-13z"/>
    </symbol>
    <symbol id="diagnostics" viewBox="0 0 50 50">
      <title>diagnostics</title>
      <path d="M21.5 11.5c.2-.4.8-.4 1.1-.1.3.2.2.6.3.9.2 1.8.4 3.6.7 5.3.2 2 .5 3.9.7 5.9 0 0 .5-1.1.7-1.6.1-.3.5-.4.8-.4h12.4c.4 0 .7.2.8.6.2.5-.3 1-.8 1h-12c-.1 0-.2 0-.2.1-.3.6-1.4 3.6-1.7 4-.3.3-.8.2-1.1-.1-.2-.2-.2-.5-.2-.7-.4-2.7-.6-5.5-1.1-8.2 0 .2-1.1 8.3-1.6 12.1-.1.3-.4.6-.7.6-.4 0-.8-.3-.8-.7-.3-2-.5-4-.8-6-.2-1.3-.3-2.6-.6-3.9-.3.7-.4 1.5-.7 2.3-.2.3-.4.5-.8.4h-4c-.5 0-.9-.5-.7-1 .1-.3.4-.5.7-.5h3.5c.3-1 1.1-3.8 1.2-4.2.1-.4.2-.8.4-1.2 0-.1.1-.2.2-.3.1-.1.3-.1.3-.1.2 0 .3 0 .5.1 0 0 .2.2.3.5.4 1.8 1.1 7.2 1.2 7.8.3-1.7.5-3.4.7-5 .4-2.3.6-4.6.9-6.8.3-.2.2-.5.4-.8zM10.4 35.5h28.9c1.5 0 3 0 4.5.2.8 0 4 2.8 4.5 3 .6.4 1.1.8 1.7 1.3 0 .1.1.3 0 .4-.4.5-1.2.4-1.8.4-.6 0-16.7-.1-30.1-.1H.6c-.2-.1-.6-.3-.6-.6.2-.2.5-.4.7-.6 1.6-1.1 3.1-2.3 4.7-3.4.4-.3.8-.3 1.3-.4 1.2-.2 2.5-.2 3.7-.2zM1.2 41.7h47.7c-.1.1-.4.3-.5.4-.5.2-.9.2-1.4.3-1.2.2-2.2 0-3.3 0H5.3c-1.1 0-2.2 0-3.2-.2-.4-.1-.8-.2-.9-.5z"/><path d="M38.1 34.5H11.9c-2.7 0-4.9-2.2-4.9-4.9V12.4c0-2.7 2.2-4.9 4.9-4.9h26.2c2.7 0 4.9 2.2 4.9 4.9v17.2c0 2.7-2.2 4.9-4.9 4.9zM11.9 10c-1.3 0-2.4 1.1-2.4 2.4v17.2c0 1.3 1.1 2.4 2.4 2.4h26.2c1.3 0 2.4-1.1 2.4-2.4V12.4c0-1.3-1.1-2.4-2.4-2.4H11.9z"/>
    </symbol>
    <symbol id="engineer" viewBox="0 0 50 50">
      <title>engineer</title>
      <path d="M14.6 15.4c0 1.9-1.5 3.4-3.4 3.4s-3.4-1.5-3.4-3.4S9.3 12 11.2 12s3.4 1.5 3.4 3.4z"/><path d="M22.5 20.1c0-6.2-5.1-11.2-11.3-11.2C5.1 8.9 0 14 0 20.1c0 6.2 5.1 11.2 11.3 11.2s11.2-5 11.2-11.2zm-7.3 8.6c-.1.1-.3.1-.4.2v-4.8c.4.8.7 3.1.4 4.6zm-7.4.2c-.1-.1-.3-.1-.4-.2-.3-1.5 0-3.8.4-4.6v4.8zm1.4-9.5c-.1.1-.1.1-.2.1-1.3.8-4.5 2.8-4.3 6.7v.7c-1.8-1.7-2.9-4.1-2.9-6.8 0-5.2 4.2-9.4 9.4-9.4s9.4 4.2 9.4 9.4c0 2.7-1.1 5.1-2.9 6.8v-.6c.2-3.9-3-6-4.3-6.8-.1 0-.1-.1-.2-.1-.4-.2-.8-.4-1.2-.5l-.8.8-.8-.8c-.4.1-.8.3-1.2.5zm1.3 5.9l.8-5.4.8 5.4-.8 1.1-.8-1.1zM38.7 18.3c-6.3 0-11.3 5.1-11.3 11.3s5.1 11.3 11.3 11.3C45 40.9 50 35.8 50 29.6s-5.1-11.3-11.3-11.3zm0 20.8c-5.3 0-9.5-4.3-9.5-9.5s4.3-9.5 9.5-9.5c5.3 0 9.5 4.3 9.5 9.5s-4.3 9.5-9.5 9.5z"/><path d="M45.6 30.5l-.8-.3c.1-.6 0-1.2-.1-1.8l.8-.4c.5-.2.7-.8.5-1.3l-.5-1c-.2-.5-.8-.7-1.3-.5l-.8.4c-.4-.5-.8-.9-1.3-1.2l.3-.8c.2-.5-.1-1.1-.6-1.3l-1-.4c-.5-.2-1.1.1-1.3.6l-.3.8c-.6-.1-1.2 0-1.8.1l-.4-.8c-.2-.5-.8-.7-1.3-.5l-1 .5c-.5.2-.7.8-.5 1.3l.4.8c-.5.4-.9.8-1.2 1.3l-.8-.3c-.5-.2-1.1.1-1.3.6l-.4 1c-.1.2-.1.5 0 .7s.3.4.6.5l.8.3c-.1.6 0 1.2.1 1.8l-.8.4c-.5.2-.7.8-.5 1.3l.5 1c.2.5.8.7 1.3.5l.8-.4c.4.5.8.9 1.3 1.2l-.2.9c-.1.2-.1.5 0 .7s.3.4.6.5l1 .4c.2.1.5.1.8 0 .2-.1.4-.3.5-.5l.3-.8c.6.1 1.2 0 1.8-.1l.4.8c.2.5.8.7 1.3.5l1-.5c.5-.2.7-.8.5-1.3l-.4-.8c.5-.4.9-.8 1.2-1.3l.8.3c.2.1.5.1.8 0 .2-.1.4-.3.5-.5l.4-1c.1-.6-.2-1.2-.7-1.4zm-5.4 2.6c-.5.2-1.1.4-1.6.4-1.5 0-2.9-.9-3.5-2.2-.9-1.9 0-4.2 1.9-5.1.5-.2 1.1-.4 1.6-.4 1.5 0 2.9.9 3.5 2.2.9 1.9.1 4.2-1.9 5.1zM37.9 13.9l-2.3-.2-.2 2.4 6.3.5.1-6.4-2.4-.1v1.8C28.8-.9 15.6 6.7 15.5 6.8l1.2 2c.5-.3 11.8-6.8 21.2 5.1zM9.9 36.2l2.3.2.2-2.4-6.3-.5L6 40h2.4v-1.8c10.7 12.7 23.8 5.1 23.9 5l-1.2-2c-.5.2-11.7 6.8-21.2-5z"/>
    </symbol>
    <symbol id="facebook" viewBox="0 0 32 32">
      <title>facebook</title>
      <path d="M27.7 0H4.3C1.9 0 0 1.9 0 4.3v23.4C0 30.1 1.9 32 4.3 32h11.5V20.6h-3c-.4 0-.7-.3-.7-.7v-3.7c0-.4.3-.7.7-.7h3v-3.6c0-4.1 2.5-6.4 6.2-6.4h3c.4 0 .7.3.7.7v3.1c0 .4-.3.7-.7.7h-1.9c-2 0-2.4 1-2.4 2.4v3.1h4.4c.4 0 .7.4.7.8l-.4 3.7c0 .4-.3.6-.7.6h-3.9V32h6.9c2.4 0 4.3-1.9 4.3-4.3V4.3C32 1.9 30.1 0 27.7 0z"/>
    </symbol>
    <symbol id="good" viewBox="0 0 50 50">
      <title>good</title>
      <path d="M12.4 45.1c0 .6-.5 1.2-1.2 1.2s-1.2-.5-1.2-1.2c0-.6.5-1.2 1.2-1.2.7.1 1.2.6 1.2 1.2z"/><path d="M45.3 37.3c.2-.4.4-.8.4-1.3v-.4c0-1.4-1.1-2.5-2.5-2.5H35l1.4-6.9c.2-1 .2-2 .1-3-.3-1.6-1.1-3.5-3.6-3.5-.4 0-.7.3-.7.6l-.5 2.8c-.2 1.1-.5 2.2-.8 3.2-.9 2.7-2 4.1-4.1 5-1 .4-1.8.8-2.1.9h-3.1v-.6c0-.4-.3-.7-.7-.7h-5v-.8c0-.4-.3-.7-.7-.7H2.7c-.4 0-.7.3-.7.7v4.4c0 .4.3.7.7.7s.7-.3.7-.7v-3.6h11v17.3h-11V37c0-.4-.3-.7-.7-.7-.4-.1-.7.3-.7.7v11.9c0 .4.3.7.7.7h12.4c.4 0 .7-.3.7-.7v-.8h5c.4 0 .7-.3.7-.7V47h3l1.6 1.3c1.3 1.1 3 1.7 4.7 1.7H41c1.5 0 2.7-1.2 2.7-2.7 0-.4-.1-.9-.3-1.2 1.3-.2 2.3-1.3 2.3-2.6 0-.5-.2-1-.4-1.5.8-.4 1.3-1.2 1.3-2.2v-.4c0-.9-.5-1.7-1.3-2.1zm-9.8-2.7h7.7c.6 0 1 .4 1 1v.4c0 .5-.4 1-1 1h-7.7c-.6 0-1-.4-1-1v-.4c0-.2.1-.3.1-.5.2-.3.6-.5.9-.5zm-2.4 12.7c0 .4.1.8.3 1.2H31c-1.4 0-2.7-.5-3.8-1.3l-1.8-1.4c-.1-.1-.3-.2-.5-.2h-3.2v-2.1c0-.4-.3-.7-.7-.7-.4 0-.7.3-.7.7v3.2H16V32.4h4.3V41c0 .4.3.7.7.7.4 0 .7-.3.7-.7v-7.3h3.2c.1 0 .2 0 .3-.1 0 0 .9-.4 2.2-1 2.4-1 3.9-2.7 4.9-5.9.3-1.1.6-2.2.8-3.4l.4-2.2c.9.2 1.3.9 1.6 2.2.1.8.1 1.6-.1 2.4l-1.6 7.9s0 .3-.1.7c-.1.2-.2.5-.2.7-.6 2.4-2.1 6-5.6 6-.4 0-.7.3-.7.7s.3.7.7.7c2.3 0 4.2-1.2 5.6-3.4v.8c0 .7.3 1.3.8 1.8-.5.5-.8 1.1-.8 1.9 0 .8.3 1.4.8 1.9-.5.5-.8 1.2-.8 1.9zm7.9 1.2h-5.3c-.7 0-1.2-.5-1.2-1.2s.5-1.2 1.2-1.2H41c.7 0 1.2.5 1.2 1.2s-.5 1.2-1.2 1.2zm2-3.8h-7.3c-.7 0-1.2-.5-1.2-1.2s.5-1.2 1.2-1.2H43c.7 0 1.2.5 1.2 1.2 0 .6-.5 1.2-1.2 1.2zm2.1-4.9c0 .5-.4 1-1 1h-8.6c-.6 0-1-.4-1-1v-.4c0-.5.4-1 1-1h8.6c.6 0 1 .4 1 1v.4zM16.8 10.6c-.2-.5-.6-.9-1.1-.9l-3.4-.5-1.5-3c-.2-.5-.7-.8-1.2-.8s-1 .3-1.2.8l-1.5 3-3.4.5c-.5.1-1 .4-1.1.9-.2.5 0 1 .4 1.4l2.4 2.4-.6 3.3c-.1.5.1 1 .6 1.3.2.2.5.3.8.3.2 0 .4-.1.6-.2l3-1.6 3 1.6c.5.2 1 .2 1.5-.1.4-.3.6-.8.6-1.3l-.6-3.3 2.4-2.4c.4-.4.5-.9.3-1.4zM13 13.3c-.3.3-.5.8-.4 1.2l.6 3.2-2.9-1.5c-.4-.2-.9-.2-1.3 0l-2.9 1.5.6-3.2c.1-.4-.1-.9-.4-1.2L4 11l3.2-.5c.5-.1.8-.3 1-.8L9.6 7 11 9.9c.2.4.6.7 1 .8l3.2.5-2.2 2.1zM32.4 5.2c-.2-.5-.6-.9-1.1-.9l-3.4-.5-1.5-3c-.2-.5-.7-.8-1.2-.8s-1 .3-1.2.8l-1.5 3-3.4.5c-.5.1-1 .4-1.1.9-.2.5 0 1 .3 1.4L20.7 9l-.6 3.3c-.1.5.1 1 .6 1.3.4.3 1 .3 1.5.1l3-1.6 3 1.6c.2.1.4.2.6.2.3 0 .6-.1.8-.3.4-.3.6-.8.6-1.3L29.6 9 32 6.6c.4-.4.6-.9.4-1.4zm-3.9 2.7c-.3.3-.5.8-.4 1.2l.5 3.2-2.9-1.5c-.4-.2-.9-.2-1.3 0l-2.9 1.5.6-3.2c.1-.4-.1-.9-.4-1.2l-2.3-2.3 3.2-.5c.5-.1.8-.3 1-.8L25 1.4l1.4 2.9c.2.4.6.7 1 .8l3.2.5-2.1 2.3zM47.9 10.6c-.2-.5-.6-.9-1.1-.9l-3.4-.5-1.5-3c-.2-.5-.7-.8-1.2-.8s-1 .3-1.2.8l-1.5 3-3.4.5c-.5.1-1 .4-1.1.9-.2.5 0 1 .4 1.4l2.4 2.4-.6 3.3c-.1.5.1 1 .6 1.3.4.3 1 .3 1.5.1l3-1.6 3 1.6c.2.1.4.2.6.2.3 0 .6-.1.8-.3.4-.3.6-.8.6-1.3l-.6-3.3 2.4-2.4c.4-.4.5-.9.3-1.4zm-3.8 2.7c-.3.3-.5.8-.4 1.2l.6 3.2-2.9-1.5c-.2-.1-.4-.2-.6-.2s-.4.1-.6.2l-2.9 1.5.5-3.2c.1-.4-.1-.9-.4-1.2L35 11.1l3.2-.5c.5-.1.8-.3 1-.8L40.7 7l1.4 2.9c.2.4.6.7 1 .8l3.2.5-2.2 2.1z"/>
    </symbol>
    <symbol id="guarantee" viewBox="0 0 50 50">
      <title>guarantee</title>
      <path d="M48.9 22.6c-.3-.5-.7-.9-.8-1.3-.1-.4.1-1 .3-1.5.3-.8.6-1.7.3-2.6-.3-.9-1.1-1.4-1.8-1.9-.5-.3-1-.7-1.1-1-.2-.3-.2-.9-.2-1.5 0-.8 0-1.8-.5-2.5s-1.5-1-2.3-1.3c-.5-.2-1.1-.3-1.4-.6-.1-.2-.3-.8-.4-1.4-.2-.8-.5-1.7-1.3-2.3-.7-.5-1.7-.4-2.5-.4-.6 0-1.2 0-1.5-.2-.3-.2-.7-.7-1-1.1-.5-.7-1-1.5-1.9-1.8-.9-.3-1.8 0-2.6.3-.5.2-1.1.4-1.5.3-.4-.1-.8-.4-1.3-.7C26.7.6 25.9 0 25 0c-.9 0-1.7.6-2.4 1.1-.5.3-.9.7-1.3.7-.4.1-1-.1-1.5-.3-.8-.3-1.7-.6-2.6-.3-.9.3-1.4 1.1-1.9 1.8-.3.5-.7 1-1 1.1-.3.2-.9.2-1.5.2-.8 0-1.8 0-2.5.5S9.3 6.2 9 7c-.1.6-.3 1.2-.6 1.4-.2.3-.8.5-1.4.6-.8.2-1.7.5-2.3 1.3-.5.7-.4 1.7-.4 2.5 0 .6 0 1.2-.2 1.5-.2.3-.7.7-1.1 1-.7.5-1.5 1-1.8 1.9-.3.9 0 1.8.3 2.6.2.5.4 1.1.3 1.5-.1.4-.4.8-.8 1.3-.4.7-1 1.5-1 2.4 0 .9.6 1.7 1.1 2.4.3.5.7.9.7 1.3l1.5-.2c-.1-.7-.6-1.4-1-2-.4-.5-.8-1-.8-1.4 0-.4.4-.9.8-1.4.5-.6.9-1.2 1-2 .1-.8-.1-1.5-.4-2.3-.2-.6-.4-1.2-.3-1.6.1-.4.7-.8 1.2-1.1.6-.4 1.3-.9 1.6-1.6.4-.7.3-1.5.3-2.3 0-.6 0-1.3.2-1.6.2-.3.9-.5 1.5-.7.7-.2 1.5-.5 2-1s.8-1.3 1-2c.2-.6.4-1.2.7-1.5.3-.2 1-.2 1.6-.2.8 0 1.6 0 2.3-.3.7-.3 1.1-1 1.6-1.6.4-.5.7-1.1 1.1-1.2.4-.1 1 .1 1.6.3.7.3 1.5.5 2.3.4.7-.1 1.4-.6 2-1 .5-.4 1-.8 1.4-.8.4 0 .9.4 1.4.8.6.5 1.2.9 2 1 .8.1 1.5-.1 2.3-.4.6-.2 1.2-.4 1.6-.3.4.1.8.7 1.1 1.2.4.6.9 1.3 1.6 1.6.7.4 1.5.3 2.3.3.6 0 1.3 0 1.6.2.3.2.5.9.7 1.5.2.7.5 1.5 1 2s1.3.8 2 1c.6.2 1.2.4 1.5.7.2.3.2 1 .2 1.6 0 .8 0 1.6.3 2.3.3.7 1 1.1 1.6 1.6.5.4 1.1.7 1.2 1.1.1.4-.1 1-.3 1.6-.3.7-.5 1.5-.4 2.3.1.7.6 1.4 1 2 .4.5.8 1 .8 1.4 0 .4-.4.9-.8 1.4-.5.6-.9 1.2-1 2l1.5.2c.1-.4.4-.8.8-1.3.5-.7 1.1-1.5 1.1-2.4-.1-.9-.7-1.7-1.2-2.4zm-6.4 16.9c-.7.2-1.5.5-2 1s-.8 1.3-1 2c-.2.6-.4 1.2-.7 1.5-.3.2-1 .2-1.6.2-.8 0-1.6 0-2.3.3-.7.4-1.1 1-1.6 1.6-.4.5-.7 1.1-1.1 1.2-.4.1-1-.1-1.6-.3-.7-.3-1.5-.5-2.3-.4-.7.1-1.4.6-2 1-.5.4-1 .8-1.4.8-.4 0-.9-.4-1.4-.8-.6-.5-1.2-.9-2-1-.8-.1-1.5.1-2.3.4-.6.2-1.2.4-1.6.3-.4-.1-.8-.7-1.1-1.2-.4-.6-.9-1.3-1.6-1.6-.7-.4-1.5-.3-2.3-.3-.6 0-1.3 0-1.6-.2-.3-.2-.5-.9-.7-1.5-.2-.7-.5-1.5-1-2s-1.3-.8-2-1c-.6-.2-1.2-.4-1.5-.7l-1.3.9c.5.7 1.5 1 2.3 1.3.5.2 1.1.3 1.4.6.5.2.7.8.8 1.4.2.8.5 1.7 1.3 2.3.7.5 1.7.5 2.5.5.6 0 1.2 0 1.5.2.3.2.7.7 1 1.1.5.7 1 1.5 1.9 1.8.9.3 1.8 0 2.6-.3.5-.2 1.1-.4 1.5-.3.4.1.8.4 1.3.8.7.5 1.5 1.1 2.4 1.1.9 0 1.7-.6 2.4-1.1.5-.3.9-.7 1.3-.8.4-.1 1 .1 1.5.3.8.3 1.7.6 2.6.3.9-.3 1.4-1.1 1.9-1.8.3-.5.7-1 1-1.1.3-.2.9-.2 1.5-.2.8 0 1.8 0 2.5-.5s1-1.5 1.3-2.3c.2-.5.3-1.1.6-1.4.3-.3.8-.4 1.4-.6.8-.2 1.7-.5 2.3-1.3l-1.3-.9c-.3.3-.9.5-1.5.7zm0 0M6.2 35.9v-1.6c0-.4-.3-.8-.8-.8H3.9v1.6h.8v.8c0 .4-.4.8-.8.8s-.8-.4-.8-.8v-4.7c0-.4.4-.8.8-.8s.8.4.8.8v.8h1.6v-.8c0-1.3-1-2.3-2.3-2.3-1.3 0-2.3 1-2.3 2.3v4.7c0 1.3 1 2.3 2.3 2.3 1.2.1 2.2-1 2.2-2.3zm.8-7v7c0 1.3 1.1 2.3 2.3 2.3 1.3 0 2.3-1 2.3-2.3v-7H10v7c0 .4-.4.8-.8.8s-.8-.4-.8-.8v-7H7zm5.5 2.4v7h1.6v-1.6h1.6v1.6h1.6v-7c0-1.3-1.1-2.3-2.3-2.3-1.4-.1-2.5 1-2.5 2.3zm3.1 0v3.9H14v-3.9c0-.4.4-.8.8-.8.5 0 .8.3.8.8zm7.8 0v7H25v-1.6h1.6v1.6h1.6v-7c0-1.3-1.1-2.3-2.3-2.3-1.4-.1-2.5 1-2.5 2.3zm2.4-.8c.4 0 .8.4.8.8v3.9H25v-3.9c0-.5.4-.8.8-.8zm-7.8-.8v8.6h1.6v-2.5l1.7 2.2c.1.2.4.3.6.3h.8v-1.6h-.4l-1.9-2.4c1.3-.2 2.3-1.3 2.3-2.7 0-1.5-1.2-2.7-2.7-2.7h-1.2c-.5 0-.8.4-.8.8zm1.5.8h.4c.6 0 1.2.5 1.2 1.2 0 .6-.5 1.2-1.2 1.2h-.4v-2.4zM32 33.4l-1.6-4c-.1-.3-.5-.5-.9-.5-.4.1-.6.4-.6.8v8.6h1.6v-4.5l1.6 4c.1.3.4.5.7.5h.1c.4-.1.6-.4.6-.8v-8.6H32v4.5zm5.5-2.9h1.6v-1.6h-4.7v1.6H36v7.8h1.6v-7.8zm6.3 0v-1.6h-3.1c-.4 0-.8.3-.8.8v7.8c0 .4.3.8.8.8h3.1v-1.6h-2.3v-2.3h2.3v-1.6h-2.3v-2.3h2.3zm.7-.8v7.8c0 .4.3.8.8.8h3.1v-1.6h-2.3v-2.3h2.3v-1.6h-2.3v-2.3h2.3v-1.6h-3.1c-.4 0-.8.4-.8.8zm0 0"/><path d="M44.5 25c0-10.8-8.8-19.5-19.5-19.5C14.2 5.5 5.5 14.2 5.5 25c0 .8.1 1.6.2 2.4l1.5-.2c-.1-.7-.2-1.5-.2-2.2 0-9.9 8.1-18 18-18s18 8.1 18 18c0 .7 0 1.5-.1 2.2l1.5.2c.1-.8.1-1.6.1-2.4zm-7.6 15.5l-1-1.2c-3.2 2.4-7 3.7-11 3.7s-7.8-1.3-11-3.7l-1 1.2c3.4 2.7 7.6 4.1 11.9 4.1 4.6-.1 8.7-1.5 12.1-4.1zm0 0"/><path d="M17.2 16.4h-1.6V18h.8v7.8H18v-8.6c0-.4-.4-.8-.8-.8zm4.3 0c-1.5 0-2.7 1.2-2.7 2.7V23c0 1.5 1.2 2.7 2.7 2.7 1.5 0 2.7-1.2 2.7-2.7v-3.9c0-1.5-1.2-2.7-2.7-2.7zm1.2 6.6c0 .6-.5 1.2-1.2 1.2s-1.2-.5-1.2-1.2v-3.9c0-.6.5-1.2 1.2-1.2s1.2.5 1.2 1.2V23zm5-6.6c-1.5 0-2.7 1.2-2.7 2.7V23c0 1.5 1.2 2.7 2.7 2.7 1.5 0 2.7-1.2 2.7-2.7v-3.9c.1-1.5-1.2-2.7-2.7-2.7zm1.2 6.6c0 .6-.5 1.2-1.2 1.2-.6 0-1.2-.5-1.2-1.2v-3.9c0-.6.5-1.2 1.2-1.2.6 0 1.2.5 1.2 1.2V23zm0 0M32.9 24.7l3.1-6.2 1.4.7-3.1 6.2-1.4-.7zm0 0M32 19.5h1.6v1.6H32zM36.7 22.7h1.6v1.6h-1.6z"/>
    </symbol>
    <symbol id="instagram" viewBox="0 0 32 32">
      <title>instagram</title>
      <path d="M22.5 0h-13C4.3 0 0 4.3 0 9.5v12.9C0 27.7 4.3 32 9.5 32h12.9c5.3 0 9.5-4.3 9.5-9.5v-13C32 4.3 27.7 0 22.5 0zm6.3 22.5c0 3.5-2.8 6.3-6.3 6.3h-13c-3.5 0-6.3-2.8-6.3-6.3v-13C3.2 6 6 3.2 9.5 3.2h12.9c3.5 0 6.3 2.8 6.3 6.3l.1 13z"/><path d="M16 7.7c-4.6 0-8.3 3.7-8.3 8.3s3.7 8.3 8.3 8.3 8.3-3.7 8.3-8.3-3.7-8.3-8.3-8.3zm0 13.4c-2.8 0-5.1-2.3-5.1-5.1s2.3-5.1 5.1-5.1 5.1 2.3 5.1 5.1-2.3 5.1-5.1 5.1z"/><circle cx="24.3" cy="7.8" r="2"/>
    </symbol>
    <symbol id="kievstar" viewBox="0 0 32 32">
      <title>kievstar</title>
      <path d="M16 12.4c-1.2 0-2-.9-2-2V2.7c0-1.2.9-2 2-2s2 .9 2 2v7.6c0 1.1-.8 2.1-2 2.1M11.2 15.8c-.3 1-1.5 1.7-2.6 1.3l-7.2-2.3c-1-.3-1.6-1.5-1.3-2.6.3-1 1.5-1.7 2.6-1.3l7.2 2.4c1 .3 1.6 1.4 1.3 2.5M20.8 15.8c.3 1 1.5 1.7 2.6 1.3l7.2-2.4c1-.3 1.6-1.5 1.3-2.6-.3-1-1.5-1.7-2.6-1.3L22 13.2c-1 .4-1.6 1.5-1.2 2.6M6.2 31c-.9-.6-1.2-1.9-.4-2.8l4.4-6.1c.6-.9 1.9-1.2 2.8-.4.9.6 1.2 1.9.4 2.8L9 30.6c-.6.8-1.9 1-2.8.4M25.9 31c.9-.6 1.2-1.9.4-2.8L21.9 22c-.6-.9-1.9-1.2-2.8-.4-.9.6-1.2 1.9-.4 2.8l4.4 6.1c.5.9 1.7 1.1 2.8.5"/>
    </symbol>
    <symbol id="leader" viewBox="0 0 50 50">
      <title>leader</title>
      <path d="M24.8 16.1c-2.7 0-4.8-2.1-4.8-4.8s2.1-4.8 4.8-4.8 4.8 2.1 4.8 4.8c0 2.7-2.1 4.8-4.8 4.8zm0-8.6c-2.1 0-3.8 1.7-3.8 3.8s1.7 3.8 3.8 3.8 3.8-1.7 3.8-3.8-1.7-3.8-3.8-3.8z"/><path d="M27.4 43.5c-1.3 0-2.4-1.1-2.4-2.4v-10h-.2v10c0 1.3-1.1 2.4-2.4 2.4S20 42.4 20 41.1V21.3c-.4-.4-1-.9-1.7-1.5l-.3-.3c-3-2.7-3.4-3.4-3.7-3.8l-.1-.1c-.7-1.4-1.1-4-1.2-5.3V10c-.1-1.3.8-2.4 2-2.6h.2c1.1 0 2.1.8 2.4 2 .4 3.1.7 3.9.8 4.1.2.3 1.4 1.5 3.6 3.5h6c1.7-1.5 3.2-3.1 3.7-3.6.1-.4.4-1.4.7-4 .1-1.1 1.1-2 2.3-2h.2c1.3.1 2.2 1.3 2.1 2.6 0 .7-.4 4.1-1.1 5.7l-.1.1c-.2.3-.7 1.1-3.6 3.7-.4.3-.7.7-1.1 1-.5.5-1 .9-1.3 1.2v19.5c0 1.2-1.1 2.3-2.4 2.3zM26 30.1v11c0 .7.7 1.4 1.4 1.4s1.4-.5 1.4-1.4V21.3s.9-.9 1.6-1.5c.3-.3.7-.6 1.1-.9 2.9-2.6 3.3-3.3 3.5-3.5.7-1.4 1.1-4.7 1.1-5.3.1-.8-.4-1.4-1.2-1.5h-.2c-.6 0-1.2.5-1.3 1.2-.3 2.4-.9 4.2-.9 4.2-.4.6-2.2 2.3-4 3.9l-.1.1h-6.7l-.1-.1c-1.1-.9-3.6-3.2-4-3.9-.3-.6-.6-2-.9-4.4-.1-.6-.8-1.2-1.4-1.2h-.2c-.3 0-.6.2-.8.5s-.3.6-.3 1l.1.4c.1 1.1.4 3.7 1.1 4.9.2.3.6 1 3.5 3.6l.4.3c.8.7 2 1.8 2 1.8v20.2c0 .7.7 1.4 1.4 1.4s1.4-.5 1.4-1.4v-11H26z"/><path d="M15.6 23.9c-.2-.5-.7-.8-1.2-.8H9.8c-.4 0-.7.2-1 .5l-.2-.6c-.2-.4-.6-.7-1.1-.7H3.4c-.6 0-.9.3-1.1.7L.1 28.1c-.1.3-.1.6 0 .9s.3.5.6.6c.1.1.3.1.5.1.5 0 .9-.3 1.1-.7l.4-1v9.9c0 .7.6 1.3 1.3 1.3s1.3-.6 1.3-1.3v-6.5h.5v6.5c0 .7.6 1.3 1.3 1.3s1.3-.6 1.3-1.3v-6.8c.1-.1.2-.2.2-.3l.4-1.3v11.1c0 .8.6 1.4 1.4 1.4.8 0 1.4-.6 1.4-1.4v-7.4h.6v7.4c0 .8.6 1.4 1.4 1.4.8 0 1.4-.6 1.4-1.4V29.9l.4.8c.2.5.7.8 1.2.8.2 0 .4 0 .5-.1.3-.1.6-.4.7-.7.1-.3.1-.7 0-1l-2.4-5.8zM12.3 22.6c1.8 0 3.3-1.5 3.3-3.2 0-1.8-1.5-3.2-3.3-3.2S9 17.7 9 19.4c.1 1.8 1.5 3.2 3.3 3.2zM5.6 21.9c1.6 0 2.9-1.3 2.9-2.9s-1.3-2.9-2.9-2.9-2.9 1.3-2.9 2.9 1.3 2.9 2.9 2.9zM34.4 19.4c0 1.8 1.5 3.2 3.3 3.2s3.3-1.5 3.3-3.2c0-1.8-1.5-3.2-3.3-3.2-1.8-.1-3.3 1.4-3.3 3.2zM49.9 28.2L47.7 23c-.2-.4-.6-.7-1.1-.7h-4.2c-.5 0-.9.3-1.1.7l-.2.6c-.2-.3-.6-.5-1-.5h-4.6c-.6 0-1 .3-1.2.8l-2.5 5.7c-.1.3-.1.7 0 1s.4.6.7.7c.2.1.3.1.5.1.5 0 1-.3 1.2-.8l.4-.8v10.7c0 .8.6 1.4 1.4 1.4.8 0 1.4-.6 1.4-1.4v-7.4h.6v7.4c0 .8.6 1.4 1.4 1.4s1.4-.6 1.4-1.4v-11l.5 1.2c.1.1.1.2.2.3v6.8c0 .7.6 1.3 1.3 1.3s1.3-.6 1.3-1.3v-6.5h.5v6.5c0 .7.6 1.3 1.3 1.3s1.3-.6 1.3-1.3V28l.5 1.1c.2.4.6.7 1.1.7.2 0 .3 0 .5-.1.3-.1.5-.3.6-.6.1-.3.1-.6 0-.9zM44.4 21.9c1.6 0 2.9-1.3 2.9-2.9s-1.3-2.9-2.9-2.9c-1.6 0-2.9 1.3-2.9 2.9s1.3 2.9 2.9 2.9z"/>
    </symbol>
    <symbol id="lifecell" viewBox="0 0 32 32">
      <title>lifecell</title>
      <path d="M11.7.6c3.6-1 7.6-.7 10.9.8C26.2 3 29.1 6 30.7 9.6c1.3 2.9 1.7 6.2 1.1 9.3-.6 3.1-2.1 6-4.3 8.3-2.7 2.7-6.4 4.5-10.3 4.7-.7.1-1.4.1-2.2 0-1.3-.1-2.7-.3-3.9-.7.1-.5.2-1.1.3-1.6 1-3.7 2.9-7.1 5.8-9.7 1.4-1.2 3-2.3 4.8-2.9.7.8 1.8 1.2 2.8 1.2 1-.1 2.1-.6 2.7-1.4.7-1 .9-2.3.5-3.4-.4-1-1.3-1.8-2.4-2.1-.9-.1-1.8-.2-2.6.3-1.2.6-1.9 1.9-1.9 3.2-6.8 2-12.7 6.9-15.6 13.3-.9-.8-1.8-1.7-2.4-2.7-.1-1.6.2-3.2.6-4.7 1.1-3.9 3.5-7.5 6.9-9.9.3-.2.5.2.7.3 1.2 1.1 3.3 1 4.5-.1.9-.8 1.4-2 1.2-3.2-.2-1.4-1.2-2.6-2.6-3-1.4-.5-3 .2-3.8 1.3-.7.6-.9 1.5-.9 2.3C5.6 9.9 2 12.8 0 16.6c-.2-3.4.8-6.9 2.8-9.7C4.9 3.8 8.1 1.6 11.7.6z"/>
    </symbol>
    <symbol id="linkedin" viewBox="0 0 32 32">
      <title>linkedin</title>
      <path d="M29.1 0H2.9C1.3 0 0 1.3 0 2.9v26.2C0 30.7 1.3 32 2.9 32h26.2c1.6 0 2.9-1.3 2.9-2.9V2.9C32 1.3 30.7 0 29.1 0zM9.9 27.6c0 .5-.4.8-.8.8H5.5c-.5 0-.8-.4-.8-.8v-15c0-.5.4-.8.8-.8h3.6c.5 0 .8.4.8.8v15zM7.3 10.3c-1.9 0-3.4-1.5-3.4-3.4s1.5-3.4 3.4-3.4 3.4 1.5 3.4 3.4-1.6 3.4-3.4 3.4zm21.3 17.4c0 .4-.3.8-.8.8H24c-.4 0-.8-.3-.8-.8v-7.1c0-1.1.3-4.6-2.7-4.6-2.4 0-2.9 2.4-2.9 3.5v8.1c0 .4-.3.8-.8.8h-3.7c-.4 0-.8-.3-.8-.8V12.5c0-.4.3-.8.8-.8h3.7c.4 0 .8.3.8.8v1.3c.9-1.3 2.2-2.3 5-2.3 6.2 0 6.1 5.8 6.1 8.9l-.1 7.3z"/>
    </symbol>
    <symbol id="metro-icon" viewBox="0 0 40 32">
      <title>metro-icon</title>
      <path d="M33 0L20.2 17.8 7.2.4 0 29.6h9.7l1.8-9.3L20.1 32l8.5-11.5 1.7 9.1H40L33 0zm0 0"/>
    </symbol>
    <symbol id="phone" viewBox="0 0 32 32">
      <title>phone</title>
      <path d="M29.5 26.3l-4.1-5.1c-.8-1-2.3-1.2-3.4-.3L19.4 23c-.1-.1-.3-.2-.4-.3-1.4-1-3.3-2.3-5.2-4.7-1.9-2.4-2.8-4.5-3.4-6.1-.1-.2-.1-.3-.2-.5l1.7-1.4.8-.7c1.1-.8 1.3-2.3.5-3.3L9.1.9C8.3-.1 6.8-.3 5.7.6L4.2 1.7c-.4.6-.9 1.2-1.2 1.9-.3.6-.5 1.2-.7 1.8-1.1 5 .7 9.9 6.3 16.9 7.7 9.6 14.8 9.7 15.1 9.7.7 0 1.3-.1 2-.3.7-.2 1.4-.5 2-.9l1.5-1.2c.9-.7 1.1-2.3.3-3.3zm0 0"/>
    </symbol>
    <symbol id="point" viewBox="0 0 50 50">
      <title>point</title>
      <path d="M43.9 48.2l-6.7-13.9c-.1-.3-.4-.5-.6-.6l-3.3-1.5 5.8-9.5v-.1c1.1-2.2 1.7-4.6 1.7-7.1 0-4.2-1.7-8.1-4.7-11.1C33 1.5 29-.1 24.8 0c-4.1.1-8 1.7-11 4.6-2.9 2.9-4.6 6.8-4.6 10.8 0 2.5.6 5 1.7 7.2v.1l5.8 9.5-3.3 1.5c-.3.1-.5.3-.6.6L6.1 48.2c-.2.5-.1 1 .2 1.4.4.4.9.5 1.4.3l8.4-3.7 8.4 3.7c.3.1.7.1 1 0l8.4-3.7 8.4 3.7c.2.1.3.1.5.1.3 0 .7-.1.9-.4.3-.3.4-.9.2-1.4zM13.2 21.5c-1-1.9-1.4-3.9-1.4-6 0-7.1 5.9-12.9 13.1-13 3.6 0 7 1.3 9.5 3.8s3.9 5.8 3.9 9.3c0 2.1-.5 4.1-1.4 5.9L26.1 39.3c-.3.5-.9.6-1.1.6s-.7-.1-1.1-.6L13.2 21.5zm21.2 22.2c-.3-.1-.7-.1-1 0L25 47.4l-8.4-3.7c-.3-.1-.7-.1-1 0l-5.8 2.5 5-10.5 3.2-1.4 3.7 6.2c.7 1.1 1.9 1.8 3.2 1.8s2.5-.7 3.2-1.8l3.7-6.2 3.2 1.4 5 10.5-5.6-2.5z"/><path d="M25 9.9c-3.1 0-5.7 2.5-5.7 5.6s2.6 5.6 5.7 5.6 5.7-2.5 5.7-5.6-2.6-5.6-5.7-5.6zm0 8.8c-1.8 0-3.2-1.4-3.2-3.2 0-1.7 1.4-3.2 3.2-3.2s3.2 1.4 3.2 3.2c0 1.8-1.4 3.2-3.2 3.2z"/>
    </symbol>
    <symbol id="p_corp" viewBox="0 0 80 80">
      <title>p_corp</title>
      <path d="M40 31.6c8.6 0 15.7-7.1 15.7-15.8C55.7 7.1 48.6 0 40 0S24.3 7.1 24.3 15.8c0 8.7 7.1 15.8 15.7 15.8zm0 0M61 39.2c-2.1-.5-8.3-1.4-8.3-1.4-.7-.2-1.5.2-1.7.9l-9.4 26c-.5 1.5-2.6 1.5-3.2 0l-9.4-26c-.2-.6-.7-.9-1.3-.9-.1 0-6.6.9-8.7 1.4-5.8 1.5-9.5 7.3-9.5 13.3v21.6c0 3.2 2.6 5.9 5.8 5.9h49.4c3.2 0 5.8-2.6 5.8-5.9V52.4c0-6-3.8-11.3-9.5-13.2zm0 0"/><path d="M43.5 37.3c-.4-.4-.9-.6-1.5-.6h-4.1c-.6 0-1.1.2-1.5.6-.6.6-.7 1.6-.3 2.3l2.2 3.4-1 8.8 2 5.5c.2.5 1 .5 1.2 0l2-5.5-1-8.8 2.2-3.4c.5-.7.4-1.6-.2-2.3zm0 0"/>
    </symbol>
    <symbol id="p_post" viewBox="0 0 80 80">
      <title>p_post</title>
      <path d="M24 9c0 4.9-4 9-8.9 9s-8.9-4-8.9-9c0-4.9 4-9 8.9-9S24 4 24 9zm0 0M64.9 0c4.9 0 8.9 4 8.9 9 0 4.9-4 9-8.9 9S56 14 56 9s4-9 8.9-9zm0 0"/><path d="M71.5 17c-1.7 1.6-4.1 2.7-6.6 2.7-2.6 0-4.9-1-6.6-2.7-3.8 1-6.8 3.9-7.9 7.7-3.3-.6-6.7-.9-10.3-.9-3.6 0-7.1.3-10.3.9-1.2-3.7-4.2-6.7-7.9-7.7-1.7 1.6-4.1 2.7-6.6 2.7-2.6 0-4.9-1-6.6-2.7C3.6 18.3 0 22.7 0 28.1v9.4l.6.2c2 .6 3.9 1.1 5.7 1.5C5.5 41 5 42.9 5 44.8c0 8.4 8.3 15.7 20.2 19.1-.4 1.2-.7 2.5-.7 3.9v9.4l.6.2c6 1.9 11.2 2.5 15.4 2.5 8.3 0 13.2-2.4 13.5-2.6l.6-.3h.1v-9.3c0-1.3-.2-2.6-.6-3.7C66.4 60.8 75 53.4 75 44.8c0-1.9-.4-3.7-1.2-5.4 3.4-.7 5.4-1.7 5.5-1.8l.6-.3h.1V28c0-5.3-3.6-9.7-8.5-11zm1.1 27.8c0 7.6-8 14.2-19.5 17.1-1.5-2.5-3.9-4.4-6.8-5.1-1.7 1.6-4.1 2.7-6.6 2.7-2.6 0-4.9-1-6.6-2.7-2.8.7-5.2 2.6-6.7 5-11.1-3-18.8-9.4-18.8-16.9 0-1.8.5-3.5 1.3-5.2 2.7.4 5.1.6 7.3.6 8.3 0 13.2-2.4 13.5-2.6l.6-.3h.1v-9.3-1c3.1-.6 6.4-.9 9.8-.9 3.4 0 6.7.3 9.8.9v10.4l.6.2c6 1.9 11.2 2.5 15.4 2.5 2 0 3.9-.1 5.5-.4.6 1.6 1.1 3.3 1.1 5zm0 0"/><path d="M48.5 48.7c0 4.9-4 9-8.9 9s-8.9-4-8.9-9c0-4.9 4-9 8.9-9 4.9.1 8.9 4.1 8.9 9zm0 0"/>
    </symbol>
    <symbol id="p_sc" viewBox="0 0 80 80">
      <title>p_sc</title>
      <path d="M30.3 49.9l1.9-1.1c.8-.4 1-1.4.6-2.2l-3.5-6.1c-.3-.5-.8-.8-1.4-.8-.3 0-.5.1-.8.2L25.2 41c-.3.1-.5.2-.8.2-.8 0-1.6-.7-1.6-1.6v-2.1c0-.9-.7-1.6-1.6-1.6h-7c-.9 0-1.6.7-1.6 1.6v2.1c0 .9-.8 1.6-1.6 1.6-.3 0-.5-.1-.8-.2l-1.8-1c-.2-.1-.5-.2-.8-.2-.5 0-1.1.3-1.4.8l-3.5 6.1c-.4.8-.2 1.7.6 2.2L5.2 50c1.1.6 1.1 2.1 0 2.7l-1.9 1.1c-.8.4-1 1.4-.6 2.2l3.5 6.1c.3.5.8.8 1.4.8.3 0 .5-.1.8-.2l1.9-1.1c.3-.1.5-.2.8-.2.8 0 1.6.7 1.6 1.6v2.1c0 .9.7 1.6 1.6 1.6h7c.9 0 1.6-.7 1.6-1.6V63c0-.9.8-1.6 1.6-1.6.3 0 .5.1.8.2l1.9 1.1c.2.1.5.2.8.2.5 0 1.1-.3 1.4-.8l3.5-6.1c.4-.8.2-1.7-.6-2.2l-1.9-1.1c-1.1-.7-1.1-2.2-.1-2.8zm-12.6 6c-2.6 0-4.7-2.1-4.7-4.7s2.1-4.7 4.7-4.7 4.7 2.1 4.7 4.7-2.1 4.7-4.7 4.7zm0 0M29.1 6.4c-.9-.8-2.2-.8-3.1 0-.8.8-.8 2.2 0 3.1l3.9 3.9C15.6 14 4.1 25.2 2.8 39.3l.3-.6c.9-1.6 2.6-2.6 4.5-2.6h.1C10.2 26 19.1 18.3 29.8 17.7L26 21.5c-.8.8-.8 2.2 0 3.1.4.4 1 .6 1.5.6.6 0 1.1-.2 1.5-.6l7.6-7.5c.4-.4.6-1 .6-1.5 0-.6-.2-1.1-.6-1.5l-7.5-7.7zm0 0M56.6 17.5c4.8 0 8.8-3.9 8.8-8.7C65.4 4 61.5.1 56.6.1c-4.8 0-8.8 3.9-8.8 8.7 0 4.8 3.9 8.7 8.8 8.7zm0 0M73.6 41V29c0-3.3-2.1-6.3-5.3-7.3l-4.6-.8c-.4-.1-.8.1-1 .5l-5.3 14.4c-.3.8-1.5.8-1.8 0l-5.3-14.4c-.1-.3-.4-.5-.7-.5-.1 0-4.9.8-4.9.8-3.2 1.1-5.3 4-5.3 7.4v12c0 1.8 1.5 3.2 3.3 3.2h27.6c1.9 0 3.3-1.5 3.3-3.3zm0 0M77.5 43.9c-.2 2.5-2.2 4-4.7 4.2-1.9 10.9-11.1 19.3-22.4 20l3.8-3.8c.8-.8.8-2.2 0-3.1-.8-.8-2.2-.8-3.1 0l-7.6 7.5c-.8.8-.8 2.2 0 3.1l7.6 7.5c.4.4 1 .6 1.5.6.6 0 1.1-.2 1.5-.6.8-.8.8-2.2 0-3.1l-3.9-3.9c15.2-.6 27.3-13.1 27.3-28.4zm0 0"/><path d="M58.5 20.8c-.2-.2-.5-.3-.8-.3h-2.2c-.3 0-.6.1-.8.3-.3.3-.4.8-.1 1.2l1.2 1.8-.6 4.7 1.1 2.9c.1.3.5.3.6 0l1.1-2.9-.6-4.7 1.2-1.8c.2-.4.2-.9-.1-1.2zm0 0"/>
    </symbol>
    <symbol id="quality" viewBox="0 0 50 50">
      <title>quality</title>
      <path d="M48.4 27.5c-1.8-1.5-4.5-1.3-6 .4l-4.3 4.6c-.5-1.7-2-2.9-3.8-3.1.8-.5 1.5-1.1 2.2-1.8 3.1-3.1 4.8-7.1 4.8-11.4C41.2 7.3 33.9 0 25 0S8.9 7.3 8.9 16.2c0 4 1.5 7.8 4.1 10.8-.7.4-1.4.8-2 1.3-.8-1.1-2.1-1.9-3.6-1.9h-6c-.8 0-1.5.7-1.5 1.5v20.6c.1.8.8 1.5 1.6 1.5h6c1.9 0 3.6-1.2 4.1-3h22.3c3.2 0 6.3-1.5 8.2-4.1l7-9.5c1.4-1.8 1.1-4.4-.7-5.9zM8.9 45.6c0 .8-.7 1.5-1.5 1.5H2.9V29.4h4.5c.8 0 1.5.7 1.5 1.5v14.7zm2.9-29.4c0-7.3 5.9-13.3 13.2-13.3 7.3 0 13.3 6 13.3 13.3 0 7-5.5 12.7-12.5 13.2-.3 0-.5-.2-.7-.3l-.7-.6c-2.3-2.1-5.4-2.9-8.3-2.4-2.7-2.6-4.3-6.1-4.3-9.9zm35 15.5l-7 9.5c-1.4 1.8-3.6 2.9-5.9 2.9H11.8V31.5l1-.9c2.8-2.4 6.9-2.4 9.7 0 .5.4 1.8 1.7 2.5 1.7h8.9c.8 0 1.5.7 1.5 1.5s-.7 1.5-1.5 1.5H23.4c-.8 0-1.5.7-1.5 1.5s.7 1.5 1.5 1.5h11.5c1.2 0 2.4-.5 3.2-1.4l6.4-6.9c.5-.6 1.4-.6 2-.2.6.4.8 1.3.3 1.9zm0 0"/><path d="M25 14.7c-.8 0-1.5-.7-1.5-1.5 0-.6.4-1.2 1-1.4.8-.3 1.6.1 2.4 1 .5.6 1.4.7 2.1.2.6-.5.7-1.4.2-2.1-.8-.9-1.7-1.6-2.7-1.9V7.4c0-.8-.7-1.4-1.5-1.4s-1.5.7-1.5 1.5v1.7c-1.7.6-2.9 2.3-2.9 4.1 0 2.4 2 4.4 4.4 4.4.8 0 1.5.7 1.5 1.5 0 .6-.4 1.1-.9 1.3-.7.3-1.4 0-2.2-.7-.6-.6-1.5-.5-2.1 0-.6.6-.5 1.5 0 2.1.7.6 1.4 1.1 2.2 1.3V25c0 .8.7 1.5 1.5 1.5s1.5-.7 1.5-1.5v-1.7c.1 0 .2-.1.2-.1 1.6-.7 2.7-2.3 2.7-4 0-2.5-2-4.5-4.4-4.5zm0 0"/>
    </symbol>
    <symbol id="spare_part" viewBox="0 0 50 50">
      <title>spare_part</title>
      <path d="M49 31.2h-9c-.3 0-.5.1-.7.3l-1.4-1.1c-.5-.4-.9-.9-1.2-1.4.4-.9.8-1.8 1-2.7l4.5-.7c.5-.1.8-.5.8-1v-6.1c0-.5-.3-.9-.8-1l-4.5-.7c-.3-1.2-.8-2.3-1.4-3.4L39 9.7c.3-.4.2-.9-.1-1.3l-4.3-4.3c-.3-.3-.9-.4-1.3-.1l-3.7 2.7c-1.1-.6-2.2-1.1-3.4-1.4L25.5.8c-.1-.5-.5-.8-1-.8h-6.1c-.5 0-.9.3-1 .8l-.7 4.5c-1.2.3-2.3.8-3.4 1.4L9.7 4c-.4-.2-.9-.2-1.2.1L4.1 8.5c-.3.3-.3.8-.1 1.2l2.7 3.7c-.6 1.1-1.1 2.2-1.4 3.4l-4.5.7c-.5.1-.8.5-.8 1v6.1c0 .5.3.9.8 1l4.5.7c.3 1.2.8 2.3 1.4 3.4L4 33.3c-.3.4-.2.9.1 1.3l4.3 4.3c.3.3.9.4 1.3.1l3.7-2.7c1.1.6 2.2 1.1 3.4 1.4l.5 3.4c-.1.3-.1.5-.1.8 0 .9.4 1.7 1 2.3-.6.6-1 1.4-1 2.3 0 1.8 1.5 3.3 3.3 3.3h13.7c1.3 0 2.6-.4 3.6-1.2l1.1-.9c.1.4.5.7.9.7H49c.5 0 1-.4 1-1V32.2c0-.5-.4-1-1-1zm-35.1 3.2c-.3-.2-.8-.2-1.1 0L9.3 37l-3.1-3.1 2.6-3.5c.2-.3.2-.7 0-1.1C8 28 7.4 26.6 7 25.2c-.1-.4-.4-.7-.8-.7L2 23.8v-4.4l4.3-.7c.3-.1.7-.4.7-.8.4-1.4.9-2.8 1.7-4 .2-.3.2-.8 0-1.1L6.1 9.3l3.1-3.1 3.5 2.6c.3.2.7.2 1.1 0 1.3-.8 2.6-1.3 4-1.7.4-.1.7-.4.7-.8l.8-4.3h4.4l.7 4.3c.1.3.4.7.8.7 1.4.4 2.8.9 4 1.7.3.2.8.2 1.1 0l3.5-2.6L37 9.3l-2.6 3.5c-.2.3-.2.7 0 1.1.8 1.3 1.3 2.6 1.7 4 .1.4.4.7.8.7l4.3.7v4.4l-4.3.7c-.2 0-.4.1-.5.3v-3.4c0-1.1-.6-2-1.4-2.5-.5-2.6-1.8-5-3.7-6.9-5.3-5.3-14-5.3-19.3 0-2.3 2.1-3.6 4.8-4 7.8-.4 2.9.1 5.8 1.5 8.4.2.3.5.5.9.5.2 0 .3 0 .5-.1.5-.3.7-.8.4-1.3-2.4-4.5-1.6-10.2 2-13.9 4.6-4.6 12-4.6 16.6 0 1.4 1.4 2.5 3.2 3 5.1h-.1c-.6.1-1.2.3-1.7.6-.4-1.6-1.3-3.1-2.5-4.4-1.9-1.9-4.3-2.9-6.9-2.9-2.6 0-5.1 1-6.9 2.9-3.8 3.8-3.8 10.1 0 13.9.9.9 2.1 1.7 3.3 2.2l-.1.1s0 .1-.1.1l-.1.1v.1c0 .1-.1.1-.1.2s0 .1-.1.2c0 .1 0 .1-.1.2v.7c0 .9.4 1.7 1 2.3l-.1.1s0 .1-.1.1l-.1.1v.1l-.1.1V36c-1.9-.4-3.1-1-4.2-1.6zm13.2-7.3c-1.1 1.1-2.5 1.8-4 2.2h-2.9c-1.6-.3-3-1-4.2-2.2C12.9 24 12.9 19 16 16c3.1-3.1 8.1-3.1 11.1 0 1.2 1.2 2 2.9 2.2 4.6-.4.7-.7 1.5-.7 2.4v1.9c-.3.8-.9 1.5-1.5 2.2zm1.6 1.2v1h-1c.3-.2.6-.5.9-.8-.1-.1 0-.1.1-.2zm8 18.9c-.7.6-1.6.8-2.4.8H20.6c-.8 0-1.4-.6-1.4-1.4 0-.8.6-1.4 1.4-1.4h2.2c.5 0 1-.4 1-1 0-.5-.4-1-1-1h-2.2c-.8 0-1.4-.6-1.4-1.4 0-.2 0-.4.1-.5 0 0 0-.1.1-.1 0 0 0-.1.1-.1.2-.3.4-.4.7-.5h2.5c.5 0 1-.4 1-1s-.4-1-1-1h-2.2c-.8 0-1.4-.6-1.4-1.4s.6-1.4 1.4-1.4h2.2c.5 0 1-.4 1-1 0-.5-.4-1-1-1h-2.2c-.8 0-1.4-.6-1.4-1.4v-.1-.1-.1-.1-.1s0-.1.1-.1c.1-.1.2-.3.4-.4 0 0 .1 0 .1-.1h9.8c.5 0 1-.4 1-1V23c0-.6.2-1.2.5-1.6v-.1l.1-.1.1-.1.1-.1s.1 0 .1-.1c.4-.3.8-.5 1.3-.6h.4c.6 0 1 .5 1 1v6.6c.1.5.2.9.3 1.4v.1c.4 1 1.1 1.9 1.9 2.6l2.3 1.8v11.8l-1.9 1.6zm11.3-.5h-2.6v-7.6c0-.5-.4-1-1-1s-1 .4-1 1v7.6h-2.6V33.2H48v13.5z"/><path d="M43.6 36c0 .1.1.1.1.2s.1.1.1.1l.1.1c.1 0 .1.1.2.1s.1 0 .2.1h.4c.1 0 .1 0 .2-.1s.1-.1.2-.1.1-.1.1-.1l.1-.1c0-.1.1-.1.1-.2s0-.1.1-.2v-.2-.2c0-.1 0-.1-.1-.2 0-.1-.1-.1-.1-.2s-.1-.1-.1-.1l-.1-.1c-.1 0-.1-.1-.2-.1s-.1 0-.2-.1h-.4c-.1 0-.1 0-.2.1l-.1.1c-.1 0-.1.1-.1.1l-.1.1c0 .1-.1.1-.1.2s0 .1-.1.2V36zM12.5 29.4c-.3 0-.5.1-.7.3-.4.4-.4 1 0 1.4.2.2.4.3.7.3.2 0 .5-.1.7-.3.4-.4.4-1 0-1.4-.2-.2-.5-.3-.7-.3zM21.5 15.3c-3.4 0-6.2 2.8-6.2 6.2s2.8 6.2 6.2 6.2 6.2-2.8 6.2-6.2-2.7-6.2-6.2-6.2zm0 10.5c-2.4 0-4.3-1.9-4.3-4.3s1.9-4.3 4.3-4.3 4.3 1.9 4.3 4.3-1.9 4.3-4.3 4.3z"/><path d="M23.5 19.6c-.4-.4-1-.4-1.4 0l-.6.6-.5-.6c-.4-.4-1-.4-1.4 0-.4.4-.4 1 0 1.4l.6.6-.6.6c-.4.4-.4 1 0 1.4.2.2.4.3.7.3.2 0 .5-.1.7-.3l.6-.6.6.6c.2.2.4.3.7.3s.5-.1.7-.3c.4-.4.4-1 0-1.4l-.6-.6.6-.6c.3-.4.3-1-.1-1.4z"/>
    </symbol>
    <symbol id="speed_" viewBox="0 0 50 50">
      <title>speed_</title>
      <path d="M35 20.2c-.9-.9-2.3-.9-3.2 0l-6.5 6.6c-.3-.1-.7-.1-1-.1-2.4 0-4.3 1.9-4.3 4.4s1.9 4.4 4.3 4.4 4.3-1.9 4.3-4.4c0-.3 0-.7-.1-1l6.5-6.6c.9-.8.9-2.3 0-3.3z"/><path d="M42.8 11.4c-9.7-9.9-25.6-9.9-35.4 0C-1 20-2.3 33.5 4.3 43.6c.7 1 2.1 1.3 3.2.6 1-.7 1.3-2.1.6-3.2-1.9-2.9-3-6-3.3-9.2h2.1c1.3 0 2.3-1 2.3-2.4S8.2 27 6.9 27H4.8c.4-3.9 1.9-7.6 4.3-10.7l1.5 1.5c.4.4 1 .7 1.6.7.6 0 1.2-.2 1.6-.7.9-.9.9-2.4 0-3.3L12.3 13c3.1-2.6 6.8-4.1 10.6-4.5v2.1c0 1.3 1 2.4 2.3 2.4s2.3-1 2.3-2.4v-2c3.7.4 7.4 1.9 10.4 4.4l-1.6 1.5c-.9.9-.9 2.4 0 3.3.4.4 1 .7 1.6.7s1.2-.2 1.6-.7l1.5-1.5c2.5 3.2 3.9 6.9 4.3 10.7h-2.1c-1.3 0-2.3 1-2.3 2.4s1 2.4 2.3 2.4h2.1c-.4 3.2-1.5 6.3-3.3 9.2-.7 1-.4 2.5.6 3.2.4.3.8.4 1.3.4.7 0 1.5-.4 1.9-1 6.7-10.1 5.4-23.6-3-32.2z"/><path d="M35.3 41.3H14.9c-1.3 0-2.3 1-2.3 2.4 0 1.3 1 2.4 2.3 2.4h20.5c1.3 0 2.3-1 2.3-2.4-.1-1.4-1.1-2.4-2.4-2.4z"/>
    </symbol>
    <symbol id="tehnologi_" viewBox="0 0 50 50">
      <title>tehnologi_</title>
      <path d="M25.8 41.9v-1.6h3.4c.3.9 1.2 1.6 2.3 1.6 1.3 0 2.4-1.1 2.4-2.4s-1.1-2.4-2.4-2.4c-1.1 0-1.9.7-2.3 1.6h-3.4v-4.8h3.4c.3.9 1.2 1.6 2.3 1.6 1.3 0 2.4-1.1 2.4-2.4 0-1.3-1.1-2.4-2.4-2.4-1.1 0-1.9.7-2.3 1.6h-3.4v-4.8h3.4c.3.9 1.2 1.6 2.3 1.6 1.3 0 2.4-1.1 2.4-2.4s-1.1-2.4-2.4-2.4c-1.1 0-1.9.7-2.3 1.6h-3.4v-1.6h-1.6v-3.4c.9-.3 1.6-1.2 1.6-2.3 0-1.3-1.1-2.4-2.4-2.4s-2.4 1-2.4 2.3c0 1 .7 1.9 1.6 2.3v3.4h-4.8v-3.4c.9-.3 1.6-1.2 1.6-2.3 0-1.3-1.1-2.4-2.4-2.4s-2.4 1.1-2.4 2.4c0 1 .7 1.9 1.6 2.3v3.4h-4.8v-3.4c.9-.3 1.6-1.2 1.6-2.3 0-1.3-1.1-2.4-2.4-2.4s-2.4 1.1-2.4 2.4c0 1 .7 1.9 1.6 2.3v3.4H8.1v1.6H4.7c-.3-.9-1.2-1.6-2.3-1.6-1.3 0-2.4 1.1-2.4 2.4S1.1 29 2.4 29c1 0 1.9-.7 2.3-1.6h3.4v4.8H4.7c-.3-.9-1.2-1.6-2.3-1.6C1.1 30.6 0 31.7 0 33c0 1.3 1.1 2.4 2.4 2.4 1 0 1.9-.7 2.3-1.6h3.4v4.8H4.7c-.3-.9-1.2-1.6-2.3-1.6C1.1 37 0 38.1 0 39.4s1.1 2.4 2.4 2.4c1 0 1.9-.7 2.3-1.6h3.4v1.6h1.6v3.4c-.9.3-1.6 1.2-1.6 2.3 0 1.3 1.1 2.4 2.4 2.4s2.4-1.1 2.4-2.4c0-1.1-.7-1.9-1.6-2.3v-3.4h4.8v3.4c-.9.3-1.6 1.2-1.6 2.3 0 1.3 1.1 2.4 2.4 2.4s2.4-1.1 2.4-2.4c0-1.1-.7-1.9-1.6-2.3v-3.4h4.8v3.4c-.9.3-1.6 1.2-1.6 2.3 0 1.3 1.1 2.4 2.4 2.4s2.4-1.1 2.4-2.4c0-1.1-.7-1.9-1.6-2.3v-3.4h1.7zm5.7-3.2c.4 0 .8.4.8.8s-.4.8-.8.8-.8-.4-.8-.8.3-.8.8-.8zm0-6.4c.4 0 .8.4.8.8s-.4.8-.8.8-.8-.4-.8-.8c-.1-.5.3-.8.8-.8zm0-6.5c.4 0 .8.4.8.8s-.4.8-.8.8-.8-.4-.8-.8.3-.8.8-.8zm-8.1-8.1c.4 0 .8.4.8.8s-.4.8-.8.8-.8-.4-.8-.8.3-.8.8-.8zm-6.5 0c.4 0 .8.4.8.8s-.4.8-.8.8-.8-.4-.8-.8.4-.8.8-.8zm-6.4 0c.4 0 .8.4.8.8s-.4.8-.8.8-.8-.4-.8-.8.3-.8.8-.8zm-8.1 9.7c-.4 0-.8-.4-.8-.8s.4-.8.8-.8.8.4.8.8-.3.8-.8.8zm0 6.5c-.4 0-.8-.4-.8-.8s.4-.8.8-.8.8.4.8.8-.3.8-.8.8zm0 6.4c-.4 0-.8-.4-.8-.8s.4-.8.8-.8.8.4.8.8-.3.8-.8.8zm8.1 8.1c-.4 0-.8-.4-.8-.8s.4-.8.8-.8.8.4.8.8-.4.8-.8.8zm6.4 0c-.4 0-.8-.4-.8-.8s.4-.8.8-.8.8.4.8.8-.3.8-.8.8zm6.5 0c-.4 0-.8-.4-.8-.8s.4-.8.8-.8.8.4.8.8-.4.8-.8.8zM9.7 25.8h14.5v14.5H9.7V25.8z"/><path d="M46.4 12.9c-.3-1.2-.8-2.3-1.4-3.3L47.6 7 43 2.4 40.4 5c-1-.6-2.2-1.1-3.3-1.4V0h-6.5v3.6c-1.2.3-2.3.8-3.3 1.4l-2.6-2.6L20.2 7l2.6 2.6c-.6 1-1.1 2.2-1.4 3.3h-2.8v1.6h4.1l.1-.6c.3-1.4.8-2.7 1.6-4l.4-.5L22.5 7l2.3-2.3 2.4 2.4.5-.4c1.2-.8 2.6-1.4 4-1.6l.6-.1V1.6h3.2v3.3l.6.1c1.4.3 2.7.8 4 1.6l.5.4L43 4.7 45.3 7l-2.4 2.4.4.5c.8 1.2 1.4 2.6 1.6 4l.1.6h3.3v3.2H45l-.1.6c-.3 1.4-.8 2.7-1.6 4l-.4.5 2.4 2.4-2.3 2.3-2.4-2.4-.5.4c-1.2.8-2.6 1.4-4 1.6l-.6.1v4.1h1.6v-2.8c1.2-.3 2.3-.8 3.3-1.4l2.6 2.6 4.6-4.6-2.6-2.4c.6-1 1.1-2.2 1.4-3.3H50v-6.5h-3.6z"/><path d="M33.9 22.6v1.6c4.4 0 8.1-3.6 8.1-8.1S38.4 8 33.9 8s-8.1 3.6-8.1 8.1h1.6c0-3.6 2.9-6.5 6.5-6.5s6.5 2.9 6.5 6.5-3 6.5-6.5 6.5zM11.3 27.4h11.3V29H11.3zM21 37.1h1.6v1.6H21zM11.3 37.1h8.1v1.6h-8.1zM29.7 47.9l.3 1.6c9.8-2 17.5-9.7 19.5-19.5l-1.6-.3c-1.9 9.2-9 16.3-18.2 18.2zM20.3 2.1L20 .5C10.2 2.5 2.5 10.2.5 20l1.6.3C4 11.1 11.1 4 20.3 2.1z"/>
    </symbol>
    <symbol id="time" viewBox="0 0 50 50">
      <title>time</title>
      <path d="M25.1 14.3c-4.2 0-7.6-3.2-7.6-7.2S20.9 0 25.1 0s7.6 3.2 7.6 7.2-3.4 7.1-7.6 7.1zm0-12.9c-3.4 0-6.2 2.6-6.2 5.7s2.8 5.7 6.2 5.7 6.2-2.6 6.2-5.7-2.8-5.7-6.2-5.7z"/><path d="M25 50C14.8 50 6.5 41.6 6.5 31.3S14.8 12.6 25 12.6 43.5 21 43.5 31.3 35.2 50 25 50zm0-35.3c-9 0-16.4 7.4-16.4 16.5S15.9 47.7 25 47.7c9 0 16.4-7.4 16.4-16.5 0-9-7.4-16.5-16.4-16.5z"/><path d="M24.5 16h1v3h-1zM16.7 21.8l-1 1.1-1.7-1.8 1-1zM9.5 31h3v1h-3zM15.7 39.7l1 1-1.7 1.8-1-1.1zM24.5 44h1v3h-1zM33.3 40.7l1-1 1.8 1.7-1 1.1zM37.5 31h3v1h-3zM34.3 22.9l-1-1.1 1.8-1.7 1 1z"/><g><path d="M22.5 8h5v6h-5z"/><path d="M29.5 8.6c0 .2-.4.4-.6.4h-7.2c-.2 0-.2-.2-.2-.4V4.4c0-.2 0-.4.2-.4h7.2c.2 0 .6.2.6.4v4.2z"/></g><g><path d="M36.5 32h-11V20c3 0 5.6 1.3 7.6 3.3h.1c2 2 3.3 4.8 3.3 7.9v.8z"/></g>
    </symbol>
    <symbol id="vodafone" viewBox="0 0 32 32">
      <title>vodafone</title>
      <path d="M22.7 1.5C20 2.9 18.1 5.4 18 8.4c4.1.7 7.3 4.2 7.3 8.4 0 4.8-4 8.6-8.8 8.6-5.4 0-9-4.7-8.9-10C7.6 7.7 14 1.5 22 1.5h.7C20.6.5 18.3 0 16 0 7.1 0 0 7.1 0 16s7.1 16 16 16c8.8 0 16-7.1 16-16 0-6.4-3.8-12-9.3-14.5z"/>
    </symbol>
    <symbol id="youtube_" viewBox="0 0 32 32">
      <title>youtube_</title>
      <path d="M14.1 23.6c-.2.3-.4.4-.6.5s-.4 0-.4-.2v-.3-4.8H12v5.3c0 .3 0 .5.1.7s.3.4.5.4c.1.1.3.1.5 0 .4-.1.7-.3.9-.6l.1-.1v.7h1.1V19h-1.1v4.6zM15.3 12c.3 0 .5-.2.5-.5V8.1c0-.3-.2-.5-.5-.5s-.5.2-.5.5v3.4c0 .3.2.5.5.5zM12 16.8H8V18h1.3v7.3H10.7V18H12zM18.3 19.1c-.3 0-.5.2-.7.4 0 .1-.1.2-.1.2v-2.8h-1.1v8.5h1.1v-.5l.1.1c.3.2.6.4 1 .4.5 0 .8-.2 1-.7 0-.2.1-.5.1-.5v-3.6c0-.4-.1-.7-.2-1-.3-.5-.8-.6-1.2-.5zm.1 4.7v.2c0 .2-.2.4-.5.3-.2 0-.3-.1-.4-.2v-3.9s0-.1.1-.1c.2-.1.3-.2.5-.2.1 0 .2.1.3.2.1.2.1.3.1.4 0 1.1 0 2.2-.1 3.3z"/><path d="M28.2 0H3.8C1.7 0 0 1.7 0 3.8v24.4C0 30.3 1.7 32 3.8 32h24.4c2.1 0 3.8-1.7 3.8-3.8V3.8C32 1.7 30.3 0 28.2 0zM17.9 6.7h1.2v5c0 .2.2.3.4.2.2-.1.4-.2.6-.4V6.7h1.2V13h-1.2v-.7l-.4.4c-.2.2-.5.3-.7.4-.4.1-.8-.1-1-.5 0-.2-.1-.3-.1-.5V6.7zm-2.5-.2c.9 0 1.6.8 1.6 1.7v3.3c0 1-.9 1.8-1.9 1.7-.8-.1-1.4-.9-1.4-1.8V8.2c0-.9.8-1.7 1.7-1.7zm-4.6-2c.1.3.6 2.3.8 3.3.3-1 .7-3 .8-3.3h1.3s-1 3.4-1.5 4.9v3.7H11V9.6v-.2c-.5-1.5-1.5-4.9-1.5-4.9h1.3zm14.7 20.1c0 1.6-1.2 2.9-2.8 2.9-4.5.1-8.9.1-13.4 0-1.5 0-2.8-1.3-2.8-2.9v-6.9c0-1.6 1.2-2.9 2.8-2.9 4.5-.1 8.9-.1 13.4 0 1.6 0 2.8 1.3 2.8 2.8v7z"/><path d="M22.8 23.7c0 .3-.2.5-.5.5s-.5-.2-.5-.5v-1.5h2.1v-1.6c0-.2-.1-.4-.1-.6-.1-.5-.4-.9-.9-1.1-.2-.1-.3-.1-.5-.1-.5 0-1 .2-1.4.6-.4.4-.5.8-.5 1.3v2.8c0 .2 0 .5.1.7.1.5.4.9.9 1.1.4.1.7.2 1.1.1.6-.1 1-.4 1.2-1 .2-.4.1-1.4.2-1.4h-1.2v.7zm-1-3.3c0-.3.2-.5.5-.5s.5.2.5.5v.9h-1v-.9z"/>
    </symbol></svg>